<?xml version="1.0" encoding="utf-8" ?>
<svg baseProfile="full" height="200mm" version="1.1" viewBox="0,0,200,200" width="200mm" xmlns="http://www.w3.org/2000/svg" xmlns:ev="http://www.w3.org/2001/xml-events" xmlns:xlink="http://www.w3.org/1999/xlink"><defs /><rect fill="#1a1a1a" height="200" width="200" x="0" y="0" /><text alignment-baseline="middle" fill="#e1ed5e" style="dominant-baseline: central; font-size:9.0px; font-family:Arial;" text-anchor="middle" x="100.0" y="100.0">2021</text><line stroke="#e1ed5e" stroke-width="0.3" x1="100.0" x2="100.0" y1="15.0" y2="10.0" /><path d="M 100.0 14.0 a86.0,86.0 0 0,1 42.46469731375804,11.215312516191453" fill="none" id="id37" stroke="none" /><text fill="#e1ed5e" style="font-size:6.75px; font-family:Arial;" text-anchor="middle"><textPath startOffset="22.20632615414155" xlink:href="#id37">January</textPath></text><line stroke="#e1ed5e" stroke-width="0.3" x1="143.23703022742887" x2="145.7803849466894" y1="26.818313649435467" y2="22.513508569990506" /><path d="M 143.74570117128098 25.957352633546478 a86.0,86.0 0 0,1 28.547481713284135,27.462654790039114" fill="none" id="id38" stroke="none" /><text fill="#e1ed5e" style="font-size:6.75px; font-family:Arial;" text-anchor="middle"><textPath startOffset="19.985693538727396" xlink:href="#id38">February</textPath></text><line stroke="#e1ed5e" stroke-width="0.3" x1="172.23445277983987" x2="176.4835382374775" y1="55.19839476539836" y2="52.563006222186495" /><path d="M 173.08426987136738 54.67131705675599 a86.0,86.0 0 0,1 12.851231095245387,41.99856678651699" fill="none" id="id39" stroke="none" /><text fill="#e1ed5e" style="font-size:6.75px; font-family:Arial;" text-anchor="middle"><textPath startOffset="22.20632615414155" xlink:href="#id39">March</textPath></text><path d="M 120.45610955862082 95.25157060432595 l 11.115392661240977 -2.58019038790555 a32.41093056903818,32.41093056903818 0 0,0 0.12147248372716898,0.5445373261884324 l -11.158159531970183 2.3884748921671535" fill="#ff740a" stroke="none" /><line stroke="#e1ed5e" stroke-width="0.3" x1="184.98032266829074" x2="189.97916517819016" y1="98.17113171792111" y2="98.06355123074" /><path d="M 185.9800911702706 98.14961562048488 a86.0,86.0 0 0,1 -9.607161424134198,41.387399972396054" fill="none" id="id40" stroke="none" /><text fill="#e1ed5e" style="font-size:6.75px; font-family:Arial;" text-anchor="middle"><textPath startOffset="21.466115282336823" xlink:href="#id40">April</textPath></text><path d="M 120.99980553446 99.90962569577887 l 9.897977661565418 -0.04259672037878541 a30.898069320298532,30.898069320298532 0 0,0 -0.002288962390033915,0.531874247671116 l -9.897244401885882 -0.12778700549601535" fill="#ff5e08" stroke="none" /><path d="M 120.8583938346157 102.4346265915055 l 11.06033360214707 1.2909806245014404 a32.135421427302234,32.135421427302234 0 0,0 -0.06885930780690944,0.5488764344983679 l -11.036472785093313 -1.4811748132872034" fill="#ff700a" stroke="none" /><path d="M 120.23288151984713 105.62410040840565 l 21.163873998632972 5.882886838555309 a42.966290542220825,42.966290542220825 0 0,0 -0.20420724580022795,0.7108722121044193 l -21.059474115946646 -6.2463165261643105" fill="#fdff18" stroke="none" /><line stroke="#e1ed5e" stroke-width="0.3" x1="174.80103733775053" x2="179.2010983576182" y1="140.37084112569926" y2="142.7455964860345" /><path d="M 175.68104954172406 140.8457921977663 a86.0,86.0 0 0,1 -30.038265399797805,32.042727171017184" fill="none" id="id41" stroke="none" /><text fill="#e1ed5e" style="font-size:6.75px; font-family:Arial;" text-anchor="middle"><textPath startOffset="22.206326154141568" xlink:href="#id41">May</textPath></text><line stroke="#e1ed5e" stroke-width="0.3" x1="143.8653032363475" x2="146.44561519142675" y1="172.8068346515853" y2="177.08958963109032" /><path d="M 144.38136562736335 173.6633856474863 a86.0,86.0 0 0,1 -40.68145358897372,12.25698825130547" fill="none" id="id42" stroke="none" /><text fill="#e1ed5e" style="font-size:6.75px; font-family:Arial;" text-anchor="middle"><textPath startOffset="21.466115282336833" xlink:href="#id42">June</textPath></text><path d="M 105.88484417918355 120.15858648285463 l 4.946064535384641 16.94278839854761 a38.64997544208346,38.64997544208346 0 0,0 -0.640243895705871,0.18093932014989672 l -4.653689471574166 -17.025416512036024" fill="#ffc912" stroke="none" /><path d="M 105.53697534728816 120.25689768951611 l 4.00383880639599 14.647952714147596 a36.18529696461371,36.18529696461371 0 0,0 -0.6022431961350744,0.15905790180250526 l -3.7511051674494174 -14.714701965253687" fill="#ffa80f" stroke="none" /><path d="M 105.18746579009965 120.34920634021253 l 2.5303541551795763 9.925983303029007 a31.24342895141296,31.24342895141296 0 0,0 -0.5222811003215427,0.12836398742299604 l -2.359119770114823 -9.968068548766032" fill="#ff6309" stroke="none" /><path d="M 102.70371172650421 120.8252237178851 l 1.7799074238011168 13.709660661829835 a34.82471937870085,34.82471937870085 0 0,0 -0.595125561187948,0.07206141751854624 l -1.5436544395617884 -13.738267608073732" fill="#ff960d" stroke="none" /><line stroke="#e1ed5e" stroke-width="0.3" x1="102.19456741930631" x2="102.32365962044197" y1="184.97166512339345" y2="189.96999836594603" /><path d="M 102.22038585953345 185.97133177190398 a86.0,86.0 0 0,1 -42.740103519485714,-10.115201625700543" fill="none" id="id43" stroke="none" /><text fill="#e1ed5e" style="font-size:6.75px; font-family:Arial;" text-anchor="middle"><textPath startOffset="22.20632615414155" xlink:href="#id43">July</textPath></text><line stroke="#e1ed5e" stroke-width="0.3" x1="58.666819895761336" x2="56.23545636021788" y1="174.27360380694188" y2="178.64263932499728" /><path d="M 58.180547188652646 175.14741091055294 a86.0,86.0 0 0,1 -31.652253787137756,-30.449443065178592" fill="none" id="id44" stroke="none" /><text fill="#e1ed5e" style="font-size:6.75px; font-family:Arial;" text-anchor="middle"><textPath startOffset="22.20632615414155" xlink:href="#id44">August</textPath></text><line stroke="#e1ed5e" stroke-width="0.3" x1="26.63291911575756" x2="22.317208475507996" y1="142.92168965132927" y2="145.44649492493687" /><path d="M 25.769776987707644 143.4266507060508 a86.0,86.0 0 0,1 -11.730757126820373,-40.83630448921669" fill="none" id="id45" stroke="none" /><text fill="#e1ed5e" style="font-size:6.75px; font-family:Arial;" text-anchor="middle"><textPath startOffset="21.46611528233685" xlink:href="#id45">September</textPath></text><path d="M 80.73074385275274 108.34839909993369 l -6.821955655448643 2.9556101189651263 a28.43469637175835,28.43469637175835 0 0,0 -0.19071424209794174,-0.4507921322431604 l 6.871820878738893 -2.837743461055806" fill="#ff3b05" stroke="none" /><path d="M 80.32549172779594 107.34259656027581 l -3.3171497213933776 1.2379720904452531 a24.54062948793877,24.54062948793877 0 0,0 -0.14429392197239146,-0.3970349014944686 l 3.3379679043709936 -1.1806893919446673" fill="#ff0000" stroke="none" /><path d="M 80.0844068197444 106.66101706037122 l -19.310998302567516 6.458802807527075 a41.36248484709774,41.36248484709774 0 0,0 -0.2200242892687517,-0.6771651328611235 l 19.419314842852515 -6.1254387746881465" fill="#ffed16" stroke="none" /><path d="M 79.97269907076064 106.31721596034903 l -12.835374068754064 4.048664880538289 a34.45877092455876,34.45877092455876 0 0,0 -0.1735626388648807,-0.5672127460775095 l 12.903163480125075 -3.8271251619087314" fill="#ff900d" stroke="none" /><path d="M 79.86692584326677 105.97154293290107 l -16.528523612003116 4.902420146976744 a38.24023828402694,38.24023828402694 0 0,0 -0.1817455879988467,-0.6326802346051483 l 16.610461836888067 -4.617182436867" fill="#ffc412" stroke="none" /><path d="M 79.76711848015287 105.62410040840567 l -9.926498782784705 2.7592523488824194 a31.302856478153977,31.302856478153977 0 0,0 -0.13983719915300147,-0.5203862387632557 l 9.972524058279479 -2.5879751769436248" fill="#ff6409" stroke="none" /><path d="M 79.67330655649465 105.27499134158121 l -15.537035053761478 4.032024471182359 a37.05168774920651,37.05168774920651 0 0,0 -0.15489137955488733,-0.6187140665232111 l 15.604137747611427 -3.7639825652617556" fill="#ffb410" stroke="none" /><path d="M 79.4281124754447 104.21870165774334 l -16.377085304528045 3.358468533368579 a37.717901601619005,37.717901601619005 0 0,0 -0.12495414011627866,-0.6371384684274268 l 16.432469377619988 -3.076066337873198" fill="#ffbd11" stroke="none" /><path d="M 79.35854240842038 103.8639653848113 l -12.709415978873912 2.3791315698349496 a33.930178713020204,33.930178713020204 0 0,0 -0.10252335959086949,-0.5750054470588072 l 12.748485780803971 -2.1600073720429287" fill="#ff890c" stroke="none" /><path d="M 79.0235259727143 100.99374915477108 l -35.70988958399212 1.69173677830223 a56.74993968425639,56.74993968425639 0 0,0 -0.037827529352504045,-0.9761604497398437 l 35.73371924619583 -1.0767990815483892" fill="#5cff2a" stroke="none" /><line stroke="#e1ed5e" stroke-width="0.3" x1="15.007084014347285" x2="10.007500721073583" y1="101.09737516637583" y2="101.16192664675087" /><path d="M 14.007167355692545 101.11028546245083 a86.0,86.0 0 0,1 10.666146001902526,-42.60595125391555" fill="none" id="id46" stroke="none" /><text fill="#e1ed5e" style="font-size:6.75px; font-family:Arial;" text-anchor="middle"><textPath startOffset="22.20632615414155" xlink:href="#id46">October</textPath></text><path d="M 79.00175016825051 100.2711162175752 l -16.519475563937313 0.21328909633453733 a37.52085243400404,37.52085243400404 0 0,0 -0.0027795853253208356,-0.6458777392671913 l 16.52069944655214 0.07109812113632934" fill="#ffba11" stroke="none" /><path d="M 79.01574976396665 99.18683210126434 l -19.586999475760006 -0.7590225539195101 a40.60170053084123,40.60170053084123 0 0,0 0.03307374265079665,-0.6981344339954976 l 19.57103212487571 1.0960680945380166" fill="#ffe315" stroke="none" /><path d="M 79.08570108090925 98.10471618934814 l -3.5074901644806293 -0.3178537970829458 a24.521862900546868,24.521862900546868 0 0,0 0.0417138774492312,-0.4200530532399016 l 3.5014991613491695 0.378182381027278" fill="#ff0000" stroke="none" /><path d="M 79.12142395522702 97.74499172005258 l -27.735236366982587 -2.995567682380452 a48.8965367397481,48.8965367397481 0 0,0 0.09758269495761374,-0.836028937649286 l 27.679563319021383 3.4725403583545997" fill="#b5ff20" stroke="none" /><path d="M 79.32604984820605 96.31383870115002 l -12.935728944301461 -2.306437959692961 a34.139738938896436,34.139738938896436 0 0,0 0.10813238197271455,-0.5776475083187891 l 12.894110838418886 2.528763545474322" fill="#ff8c0c" stroke="none" /><path d="M 79.3925641242962 95.95851677861259 l -21.448846025146242 -4.20649865667919 a42.85743870537158,42.85743870537158 0 0,0 0.1482065416220975,-0.7227077314312813 l 21.37326018760915 4.575082044273874" fill="#feff18" stroke="none" /><path d="M 79.62865764111835 94.90015583598534 l -10.058146124249307 -2.5179969443788495 a31.368539534025636,31.368539534025636 0 0,0 0.13563706921718133,-0.5226649575365404 l 10.013312723161818 2.6907583274642537" fill="#ff6509" stroke="none" /><path d="M 80.52162464483688 92.15188598940014 l -58.435126065489385 -23.544342031799562 a84.0,84.0 0 0,0 0.5519132524551917,-1.336501718186755 l 58.02119112614799 24.546718320439627" fill="#4dd2ff" stroke="none" /><path d="M 80.95270993114464 91.15688171328213 l -31.946619901595593 -14.831912446829362 a56.22175677003399,56.22175677003399 0 0,0 0.41508203404837163,-0.8742686228222819 l 31.68657967370547 15.379623485292175" fill="#62ff29" stroke="none" /><line stroke="#e1ed5e" stroke-width="0.3" x1="26.266209847984243" x2="21.928928074336255" y1="57.71137044288968" y2="55.22380399835378" /><path d="M 25.398753493254645 57.2138571539825 a86.0,86.0 0 0,1 29.58750427330803,-30.4925239686951" fill="none" id="id47" stroke="none" /><text fill="#e1ed5e" style="font-size:6.75px; font-family:Arial;" text-anchor="middle"><textPath startOffset="21.46611528233685" xlink:href="#id47">November</textPath></text><path d="M 85.05521093208273 85.24692304244772 l -29.3639006566179 -28.987219839120584 a62.26133269506974,62.26133269506974 0 0,0 0.7594821176356781,-0.7562206600599215 l 28.86058273881491 29.488376349830617" fill="#31ff3e" stroke="none" /><path d="M 85.57189188830299 84.74124197986013 l -9.48971594802778 -10.036054499302383 a34.81220832043958,34.81220832043958 0 0,0 0.4389523005211197,-0.4079583245844886 l 9.315555763711803 10.197917409961518" fill="#ff950d" stroke="none" /><path d="M 87.22198572758235 83.33499621200491 l -15.451856660074537 -20.152211782040702 a46.39432050580818,46.39432050580818 0 0,0 0.6379304042770529,-0.48047595481722094 l 15.102680102039093 20.415204326363778" fill="#d3ff1c" stroke="none" /><path d="M 88.09926311788651 82.69761687909137 l -7.2460195408947925 -10.53492799984388 a33.786301543015625,33.786301543015625 0 0,0 0.4820103493167929,-0.3254555395065371 l 7.063604497171462 10.658095451649082" fill="#ff870c" stroke="none" /><path d="M 89.00827224532344 82.1063720568725 l -18.985374044314728 -30.90662606390892 a57.27208240860777,57.27208240860777 0 0,0 0.8444575838292365,-0.5087762455567214 l 18.450554394267844 31.22884891892426" fill="#57ff2a" stroke="none" /><line stroke="#e1ed5e" stroke-width="0.3" x1="56.76296977257108" x2="54.21961505331056" y1="26.818313649435495" y2="22.513508569990535" /><path d="M 56.25429882871898 25.957352633546506 a86.0,86.0 0 0,1 42.26535254187918,-11.944610805530505" fill="none" id="id48" stroke="none" /><text fill="#e1ed5e" style="font-size:6.75px; font-family:Arial;" text-anchor="middle"><textPath startOffset="22.20632615414155" xlink:href="#id48">December</textPath></text><path d="M 89.63071344664047 81.73862282372117 l -17.478683761743078 -30.78175485609262 a56.39803409885361,56.39803409885361 0 0,0 0.8483228759772009,-0.4720907620216255 l 16.94623679669383 31.07806101567443" fill="#60ff29" stroke="none" /><path d="M 89.94658935756843 81.56283822128135 l -17.16355676775176 -31.47660869333821 a56.85198147597106,56.85198147597106 0 0,0 0.8632159956330698,-0.46110008980411143 l 16.619195725590387 31.767387509644074" fill="#5bff2a" stroke="none" /><path d="M 90.26544431104013 81.39251694778311 l -18.64056443515931 -35.63120884955816 a61.21260606504082,61.21260606504082 0 0,0 0.9378340013708213,-0.4803950011723717 l 18.024469946199723 35.94679637604304" fill="#2fff31" stroke="none" /><path d="M 90.58718382345135 81.22770947309562 l -24.687140546053932 -49.23438064833973 a76.07702920606947,76.07702920606947 0 0,0 1.1756753284693635,-0.57689877777802 l 23.835993950574142 49.652034586252576" fill="#43ffdd" stroke="none" /></svg>